<?xml version="1.0" encoding="UTF-8"?>
<svg preserveAspectRatio="none" viewBox="0 0 1441 136" version="1.1" xmlns="http://www.w3.org/2000/svg" xmlns:xlink="http://www.w3.org/1999/xlink">
    <title>above-footer-desktop</title>
    <defs>
        <polygon id="path-1" points="0 0 47 0 47 25 0 25"></polygon>
        <polygon id="path-3" points="0 0 65 0 65 37 0 37"></polygon>
    </defs>
    <g id="Page-1" stroke="none" stroke-width="1" fill="none" fill-rule="evenodd">
        <g id="Artboard" transform="translate(-246.000000, -2163.000000)">
            <g id="faq_top" transform="translate(246.989757, 2163.000000)">
                <g id="cloud" transform="translate(894.010243, 0.000000)">
                    <mask id="mask-2" fill="white">
                        <use xlink:href="#path-1"></use>
                    </mask>
                    <g id="Clip-2"></g>
                    <path d="M37.4616203,6.36511979 C37.4845721,6.18026578 37.497644,5.99255165 37.497644,5.8019774 C37.497644,3.07417644 35.0784314,0.862852773 32.0940872,0.862852773 C30.625627,0.862852773 29.2947256,1.39904984 28.3207174,2.26792391 C26.3915489,0.842229809 24.0262958,0 21.4681563,0 C16.0434717,0 11.4798602,3.77701307 10.127679,8.9097226 C10.0877033,8.909271 10.0484876,8.90731408 10.0085119,8.90731408 C4.48092415,8.90731408 0,12.5097094 0,16.9535818 C0,21.3976047 4.48092415,25 10.0085119,25 C12.5145159,25 14.8036176,24.2577238 16.5593555,23.0340444 C18.0535036,23.7409455 19.7151543,24.138201 21.4681563,24.138201 C24.1333029,24.138201 26.5900593,23.2255219 28.5614835,21.6894874 C30.499012,23.5455542 33.2974616,24.711429 36.4096367,24.711429 C42.2585499,24.711429 47,20.5943629 47,15.515544 C47,10.7451664 42.8165375,6.82379258 37.4616203,6.36511979" id="Fill-1" fill="#E6EFFF" mask="url(#mask-2)"></path>
                </g>
                <g id="car" transform="translate(1084.515191, 38.514746)">
                    <g id="Group-3" transform="translate(67.495052, 45.485254)">
                        <mask id="mask-4" fill="white">
                            <use xlink:href="#path-3"></use>
                        </mask>
                        <g id="Clip-2"></g>
                        <path d="M12.6236922,29.2915723 C11.5205816,29.2915723 10.6236922,30.1890377 10.6236922,31.2915723 C10.6236922,32.3946829 11.5205816,33.2915723 12.6236922,33.2915723 C13.7262267,33.2915723 14.6236922,32.3946829 14.6236922,31.2915723 C14.6236922,30.1890377 13.7262267,29.2915723 12.6236922,29.2915723 L12.6236922,29.2915723 Z M52.0442146,29.3547696 C50.941104,29.3547696 50.0442146,30.2522351 50.0442146,31.3547696 C50.0442146,32.4578802 50.941104,33.3547696 52.0442146,33.3547696 C53.1467491,33.3547696 54.0442146,32.4578802 54.0442146,31.3547696 C54.0442146,30.2522351 53.1467491,29.3547696 52.0442146,29.3547696 L52.0442146,29.3547696 Z M12.6241077,26.309022 C15.3810564,26.309022 17.6233876,28.5527933 17.6233876,31.309262 C17.6233876,34.0666909 15.3810564,36.309022 12.6241077,36.309022 C9.86667883,36.309022 7.62338758,34.0666909 7.62338758,31.309262 C7.62338758,28.5527933 9.86667883,26.309022 12.6241077,26.309022 L12.6241077,26.309022 Z M52.1967087,26.3801895 C54.9536575,26.3801895 57.1959887,28.6239608 57.1959887,31.3804295 C57.1959887,34.1378583 54.9536575,36.3801895 52.1967087,36.3801895 C49.4392799,36.3801895 47.1959887,34.1378583 47.1959887,31.3804295 C47.1959887,28.6239608 49.4392799,26.3801895 52.1967087,26.3801895 L52.1967087,26.3801895 Z M48.9636338,15.3335955 C49.1618087,15.3335955 49.3211612,15.1690495 49.3211612,14.9645292 L45.8284969,7.70266176 C45.6835899,7.40936097 45.3901646,7.33359547 45.1933439,7.33359547 L35.6809459,7.33359547 C35.4809652,7.33359547 35.3211612,7.49860622 35.3211612,7.70266176 L35.3211612,14.964994 C35.3211612,15.1690495 35.4814166,15.3335955 35.6809459,15.3335955 L48.9636338,15.3335955 Z M60.1544212,17.1314263 C61.8935363,17.7292175 63.1001017,18.5062986 63.1001017,20.2026561 L63.1001017,27.9273364 C63.1001017,29.6222672 61.7821892,30.9980906 60.1548775,30.9980906 L58.2245555,30.9980906 C58.1647749,29.9461302 57.8567448,28.8955965 57.2781045,27.9430302 C55.4536536,24.9417092 51.6400128,24.0514425 48.7600454,25.9532462 C47.0200176,27.1007961 46.0247381,29.007831 45.9079148,30.9980906 L18.9190017,30.9980906 C18.7241441,27.6267763 16.0477048,24.9531229 12.7647884,24.9531229 C9.48141562,24.9531229 6.80451994,27.6267763 6.61057506,30.9980906 L5.04669482,30.9980906 C3.41983953,30.9980906 2.10010166,29.6222672 2.10010166,27.9273364 L2.10010166,7.0678937 C2.10010166,5.3734385 3.41983953,3.9985662 5.04669482,3.99809063 L42.0846908,3.99809063 C46.3099511,3.99809063 47.2691797,4.75377104 48.6788167,7.0678937 L52.8881051,14.516268 L60.1544212,17.1314263 Z" id="Fill-1" fill="#E6EFFF" mask="url(#mask-4)" transform="translate(32.600102, 20.189140) rotate(-3.000000) translate(-32.600102, -20.189140) "></path>
                    </g>
                    <path d="M70.8994269,40.3630092 C70.6112769,40.3564981 70.1971569,40.2588326 69.7252369,39.8767459 C68.8220269,39.1454452 62.3790269,33.7173049 62.3790269,33.7173049 L62.3790269,41.8173525 C62.3790269,41.8173525 62.3790269,42.7173049 63.3725069,42.7173049 L70.4778269,42.7173049 L71.3208569,42.7173049 L78.3853769,42.7173049 C79.3790269,42.7173049 79.3790269,41.8173525 79.3790269,41.8173525 L79.3790269,33.7173049 C79.3790269,33.7173049 72.9768269,39.1454452 72.0736169,39.8767459 C71.6016969,40.2588326 71.1875769,40.3566569 70.8994269,40.3630092 M70.2492477,38.0320734 L62.3610777,31.3131322 C62.3610777,30.2322361 63.2041077,30.1862159 63.2041077,30.1862159 L67.9911377,30.1862159 L73.7718177,30.1862159 L78.5180477,30.1862159 C78.5180477,30.1862159 79.3610777,30.2322361 79.3610777,31.3131322 L71.5137077,38.0320734 C71.5137077,38.0320734 71.4322777,38.0744647 71.3030777,38.1147117 L71.3030777,38.1148766 C71.1607877,38.1704637 71.0162877,38.1886079 70.8816477,38.1859687 C70.7470077,38.1886079 70.6025077,38.1704637 70.4602177,38.1148766 L70.4602177,38.1147117 C70.3306777,38.0742997 70.2492477,38.0320734 70.2492477,38.0320734" id="Fill-1" fill="#E6EFFF" transform="translate(70.870052, 36.451760) rotate(-330.000000) translate(-70.870052, -36.451760) "></path>
                    <path d="M30.8573676,64.6349685 C30.4844676,64.6270106 29.9485476,64.5076416 29.3378276,64.0406467 C28.1689676,63.1468349 19.8309676,56.512441 19.8309676,56.512441 L19.8309676,66.4124993 C19.8309676,66.4124993 19.8309676,67.512441 21.1166476,67.512441 L30.3117676,67.512441 L31.4027476,67.512441 L40.5450676,67.512441 C41.8309676,67.512441 41.8309676,66.4124993 41.8309676,66.4124993 L41.8309676,56.512441 C41.8309676,56.512441 33.5457676,63.1468349 32.3769076,64.0406467 C31.7661876,64.5076416 31.2302676,64.6272047 30.8573676,64.6349685 M30.4967665,61.2483518 L20.2885465,52.8496753 C20.2885465,51.4985551 21.3795265,51.44103 21.3795265,51.44103 L27.5745065,51.44103 L35.0553865,51.44103 L41.1975665,51.44103 C41.1975665,51.44103 42.2885465,51.4985551 42.2885465,52.8496753 L32.1331265,61.2483518 C32.1331265,61.2483518 32.0277465,61.3013409 31.8605465,61.3516497 L31.8605465,61.3518558 C31.6764065,61.4213397 31.4894065,61.4440198 31.3151665,61.4407209 C31.1409265,61.4440198 30.9539265,61.4213397 30.7697865,61.3518558 L30.7697865,61.3516497 C30.6021465,61.3011347 30.4967665,61.2483518 30.4967665,61.2483518" id="Fill-1-Copy" fill="#E6EFFF" transform="translate(31.059757, 59.476736) rotate(-15.000000) translate(-31.059757, -59.476736) "></path>
                    <path d="M34.7225704,10.130906 C30.0840632,8.65665174 26.8838527,4.77325033 24.5466204,4.77325033 C23.2161959,4.77325033 20.4115171,6.42729167 18.2181144,7.90154591 C17.9664125,8.08133301 17.6427957,8.08133301 17.3910937,7.90154591 C15.1617337,6.42729167 12.3570549,4.77325033 11.0266303,4.77325033 C8.68939798,4.77325033 5.48918756,8.65665174 0.850680319,10.0949486 C0.670893217,10.130906 0.670893217,10.3826079 0.850680319,10.4185653 C6.49599534,11.7130325 8.43769604,8.18920527 10.8828006,8.18920527 C11.9615232,8.18920527 13.3998201,9.44771499 14.6942872,10.9219692 C14.2627982,10.9579267 13.8313091,10.9938841 13.4357775,10.9579267 C13.0762033,10.9219692 12.6806717,10.9938841 12.2491826,11.1736712 C11.4221619,11.5692028 11.17046,12.2523938 11.4221619,12.9355848 L10.5591838,13.5828183 C10.4153542,13.6906906 10.5232264,13.9423926 10.7030135,13.9064351 L11.9974807,13.6906906 C12.9323736,14.4817539 14.8021595,15.0570726 17.5708808,14.6255835 C23.2521533,13.726648 26.7400231,10.9579267 25.625343,10.6702673 C24.4027907,10.3106931 22.9644939,10.0949486 21.8138565,9.9870763 C22.8206642,8.98026852 23.8634294,8.22516269 24.7264075,8.22516269 C27.1715121,8.22516269 29.1132128,11.7489899 34.7585278,10.4545228 C34.9023575,10.4185653 34.9023575,10.1668634 34.7225704,10.130906" id="Fill-1" fill="#E6EFFF" transform="translate(17.789060, 9.773250) rotate(-17.000000) translate(-17.789060, -9.773250) "></path>
                </g>
                <path d="M511.010243,60 L507.010243,56 L515.010243,56 L511.010243,60 Z M525.181671,37.0024028 C524.495078,30.2682792 518.413496,25 511.010243,25 C503.60699,25 497.525408,30.2682792 496.838814,37.0024028 C491.326902,37.4763004 487.010243,41.7969576 487.010243,47.0591767 C487.010243,52.6382509 491.861584,57.1609682 497.845935,57.1609682 L501.747649,57.1609682 L506.785891,61.8580424 L506.785891,70.2548763 C506.785891,71.7051378 505.899913,72.9604382 504.606551,73.5825477 C504.533759,73.6208127 504.484353,73.6933604 504.484353,73.7768163 C504.484353,73.9000954 504.591606,74 504.723825,74 L510.693584,74 L511.326902,74 L517.301935,74 C517.434155,74 517.541408,73.9000954 517.541408,73.7768163 C517.541408,73.6957845 517.493759,73.6263534 517.424485,73.5872226 C516.125496,72.9668445 515.234595,71.7091201 515.234595,70.2548763 L515.234595,61.8580424 L520.272836,57.1609682 L524.174551,57.1609682 C530.159078,57.1609682 535.010243,52.6382509 535.010243,47.0591767 C535.010243,41.7969576 530.693584,37.4763004 525.181671,37.0024028 L525.181671,37.0024028 Z" id="tree" fill="#E6EFFF"></path>
                <path d="M195.168138,24 L195.168138,67.8451119 L192.90498,67.8451119 L192.90498,29.9927629 L178.009717,29.9927629 L178.009717,67.8451119 L175.010243,67.8451119 L175.010243,71 L225.010243,71 L225.010243,67.8451119 L222.009717,67.8451119 L222.009717,24 L195.168138,24 Z M216.010243,30 L219.010243,30 L219.010243,27 L216.010243,27 L216.010243,30 Z M210.010243,30 L213.010243,30 L213.010243,27 L210.010243,27 L210.010243,30 Z M204.010243,30 L207.010243,30 L207.010243,27 L204.010243,27 L204.010243,30 Z M198.010243,30 L201.010243,30 L201.010243,27 L198.010243,27 L198.010243,30 Z M216.010243,36 L219.010243,36 L219.010243,33 L216.010243,33 L216.010243,36 Z M210.010243,36 L213.010243,36 L213.010243,33 L210.010243,33 L210.010243,36 Z M204.010243,36 L207.010243,36 L207.010243,33 L204.010243,33 L204.010243,36 Z M198.010243,36 L201.010243,36 L201.010243,33 L198.010243,33 L198.010243,36 Z M187.010243,36 L190.010243,36 L190.010243,33 L187.010243,33 L187.010243,36 Z M181.010243,36 L184.010243,36 L184.010243,33 L181.010243,33 L181.010243,36 Z M216.010243,42 L219.010243,42 L219.010243,39 L216.010243,39 L216.010243,42 Z M210.010243,42 L213.010243,42 L213.010243,39 L210.010243,39 L210.010243,42 Z M204.010243,42 L207.010243,42 L207.010243,39 L204.010243,39 L204.010243,42 Z M198.010243,42 L201.010243,42 L201.010243,39 L198.010243,39 L198.010243,42 Z M187.010243,42 L190.010243,42 L190.010243,39 L187.010243,39 L187.010243,42 Z M181.010243,42 L184.010243,42 L184.010243,39 L181.010243,39 L181.010243,42 Z M216.010243,48 L219.010243,48 L219.010243,45 L216.010243,45 L216.010243,48 Z M210.010243,48 L213.010243,48 L213.010243,45 L210.010243,45 L210.010243,48 Z M204.010243,48 L207.010243,48 L207.010243,45 L204.010243,45 L204.010243,48 Z M198.010243,48 L201.010243,48 L201.010243,45 L198.010243,45 L198.010243,48 Z M187.010243,48 L190.010243,48 L190.010243,45 L187.010243,45 L187.010243,48 Z M181.010243,48 L184.010243,48 L184.010243,45 L181.010243,45 L181.010243,48 Z M216.010243,54 L219.010243,54 L219.010243,51 L216.010243,51 L216.010243,54 Z M210.010243,54 L213.010243,54 L213.010243,51 L210.010243,51 L210.010243,54 Z M204.010243,54 L207.010243,54 L207.010243,51 L204.010243,51 L204.010243,54 Z M198.010243,54 L201.010243,54 L201.010243,51 L198.010243,51 L198.010243,54 Z M187.010243,54 L190.010243,54 L190.010243,51 L187.010243,51 L187.010243,54 Z M181.010243,54 L184.010243,54 L184.010243,51 L181.010243,51 L181.010243,54 Z M209.010243,68 L213.010243,68 L213.010243,57 L209.010243,57 L209.010243,68 Z M204.010243,68 L208.010243,68 L208.010243,57 L204.010243,57 L204.010243,68 Z M187.010243,60 L190.010243,60 L190.010243,57 L187.010243,57 L187.010243,60 Z M181.010243,60 L184.010243,60 L184.010243,57 L181.010243,57 L181.010243,60 Z" id="building" fill="#E6EFFF"></path>
                <path d="M0,176 L1440.01024,176 L1440.01024,93 C1269.19286,115.456828 1148.16857,125.223812 1076.93736,122.300952 C626.361095,103.812266 565.811235,61.188609 328.166421,61.188609 C212.076834,61.188609 102.688027,71.792406 0,93 L0,176 Z" id="Path-2" fill="#E6EFFF"></path>
                <path d="M1247.98102,43.4914222 L1248.07991,43.5669946 L1261.184,54.085661 C1261.64304,54.4541338 1261.92356,55.0005822 1261.95929,55.587293 L1261.96316,55.7051312 L1261.97634,58.3649323 C1261.99126,58.3520889 1262.00135,58.3433974 1262.00643,58.3390301 L1262.01024,58.3357439 L1262.01024,73.3336626 C1262.01024,73.3336626 1262.01024,74.8788534 1260.39226,74.993312 L1260.19829,75 L1232.82188,75 C1231.14444,75 1231.02018,73.5713843 1231.01098,73.3597375 L1231.01024,55.7124923 C1231.01024,55.1184838 1231.26172,54.5547498 1231.69798,54.1609207 L1231.78768,54.0844616 L1244.85902,43.5687516 C1245.76836,42.8372008 1247.04558,42.8112953 1247.98102,43.4914222 Z M1246.20146,45.159208 L1246.14825,45.1967823 L1233.07691,55.7124923 L1233.07576,60.1016632 L1233.34645,60.3329922 C1234.51812,61.334244 1236.00644,62.6054832 1237.51383,63.8913969 L1238.07941,64.3738037 C1240.90598,66.7842905 1243.6688,69.1341688 1244.40627,69.7404664 C1245.26683,70.447932 1246.02199,70.628768 1246.54744,70.6408237 C1247.07289,70.629062 1247.82805,70.447932 1248.68861,69.7404664 C1249.89494,68.7487159 1256.48052,63.0917115 1259.91842,60.1353695 L1259.89652,55.7150973 L1246.79243,45.1964309 C1246.62104,45.0588583 1246.38456,45.0464722 1246.20146,45.159208 Z M1246.54742,51.8839746 C1247.69955,51.8839746 1248.7232,52.1330531 1249.61795,52.6307806 C1250.5127,53.1287228 1251.20722,53.8059586 1251.70172,54.6633469 C1252.19601,55.5203057 1252.44326,56.4685217 1252.44326,57.5073508 C1252.44326,58.3041872 1252.31457,58.9859322 1252.05719,59.5528004 C1251.7998,60.1200981 1251.45244,60.5484702 1251.0153,60.8385607 C1250.57816,61.1286513 1250.0938,61.2735892 1249.56283,61.2735892 C1249.09691,61.2735892 1248.7005,61.1782522 1248.37381,60.9880078 C1248.04692,60.7975487 1247.79764,60.516047 1247.62619,60.1437176 C1247.26647,60.8969653 1246.64551,61.2735892 1245.76292,61.2735892 C1245.31362,61.2735892 1244.89066,61.1417494 1244.49446,60.8776403 C1244.09785,60.6135312 1243.77724,60.2345454 1243.53222,59.7411123 C1243.287,59.2476793 1243.16439,58.680811 1243.16439,58.0398634 C1243.16439,57.3991304 1243.28477,56.8341947 1243.52594,56.3450561 C1243.76691,55.8559175 1244.08549,55.4792936 1244.4821,55.2151846 C1244.8783,54.9510755 1245.30531,54.8190209 1245.76292,54.8190209 C1246.4084,54.8190209 1246.911,55.0313818 1247.27072,55.4554594 L1247.27072,54.9360449 L1249.62423,54.9360449 L1249.62423,58.6501056 C1249.62423,59.1265756 1249.78352,59.3644885 1250.10211,59.3644885 C1250.29828,59.3644885 1250.4515,59.2305015 1250.56195,58.9618832 C1250.67199,58.6936944 1250.72732,58.2217336 1250.72732,57.5464303 C1250.72732,56.7669864 1250.55364,56.0745053 1250.20628,55.4685575 C1249.85891,54.862395 1249.36868,54.3885017 1248.73536,54.0464482 C1248.10204,53.7043947 1247.37266,53.5332606 1246.54742,53.5332606 C1245.72198,53.5332606 1244.99078,53.7215726 1244.35341,54.0984111 C1243.71604,54.475035 1243.22154,54.9944495 1242.87013,55.6568694 C1242.51892,56.3190746 1242.34321,57.0572917 1242.34321,57.8710912 C1242.34321,58.7108722 1242.51669,59.4619727 1242.86405,60.1241779 C1243.21141,60.7865978 1243.69962,61.3038651 1244.32889,61.6761945 C1244.95795,62.0483091 1245.68125,62.2346885 1246.49838,62.2346885 C1247.35645,62.2346885 1248.18169,62.0442294 1248.9745,61.6633111 L1249.48926,63.2606342 C1249.12163,63.4508787 1248.66605,63.602473 1248.12251,63.7152025 C1247.57897,63.8275025 1247.03766,63.8839746 1246.49838,63.8839746 C1245.2972,63.8839746 1244.23688,63.6220127 1243.31761,63.0983038 C1242.39833,62.5743801 1241.68922,61.8559175 1241.19087,60.9424866 C1240.69233,60.0290557 1240.44326,59.0052572 1240.44326,57.8710912 C1240.44326,56.7541031 1240.69456,55.7412555 1241.19716,54.832119 C1241.69976,53.9229826 1242.41252,53.20452 1243.33605,52.6763018 C1244.25937,52.1482984 1245.32983,51.8839746 1246.54742,51.8839746 Z M1246.43718,56.8580289 C1246.17554,56.8580289 1245.96518,56.9598075 1245.80588,57.1631501 C1245.64659,57.3667073 1245.56695,57.6589451 1245.56695,58.0398634 C1245.56695,58.4209964 1245.64659,58.7151667 1245.80588,58.9230184 C1245.96518,59.1308701 1246.17554,59.2345812 1246.43718,59.2345812 C1246.69861,59.2345812 1246.911,59.1308701 1247.07455,58.9230184 C1247.23789,58.7151667 1247.31956,58.4209964 1247.31956,58.0398634 C1247.31956,57.6589451 1247.23789,57.3667073 1247.07455,57.1631501 C1246.911,56.9598075 1246.69861,56.8580289 1246.43718,56.8580289 Z" id="Combined-Shape-Copy" fill="#E6EFFF" transform="translate(1246.510243, 59.000000) rotate(-330.000000) translate(-1246.510243, -59.000000) "></path>
            </g>
        </g>
    </g>
</svg>
