<svg id="Layer_1" data-name="Layer 1" xmlns="http://www.w3.org/2000/svg" viewBox="0 0 484.84 596.21"><defs><style>.cls-1{fill:#0090e3;}.cls-2{fill:#0d1c47;}</style></defs><path class="cls-1" d="M71.22,70.62l71.7,70.59C197.63,87.41,285.44,87,340.65,140L413,70C318.42-23.54,165.5-23.33,71.22,70.62Z"/><path class="cls-1" d="M277.31,396v32.57H225.19V401.07a125.71,125.71,0,0,1-73.54-34.3l-20,19.4v33.42H97.35v-.25l-10,9.74A214.86,214.86,0,0,0,150,472.21V448.9h52.13v39.24a217.25,217.25,0,0,0,52.12,2.62V474.22h34.26v11.4a214.49,214.49,0,0,0,102.88-57.11l-63.8-62.82A125.48,125.48,0,0,1,277.31,396Zm69.92,49.71H313V411.39h34.26Z"/><rect class="cls-1" x="264.8" y="513.53" width="25.03" height="25.03"/><rect class="cls-1" x="201.12" y="552.82" width="43.39" height="43.39"/><path class="cls-2" d="M413,70l-72.32,70c.71.69,1.45,1.34,2.15,2,54.54,54.55,55.3,142.77,2.34,198.3l71.7,70.59c91.63-94.79,90.66-246.43-2.92-340C413.61,70.6,413.28,70.3,413,70Z"/><path class="cls-2" d="M70.92,70.92c-92.4,92.39-94.5,241.39-6.35,336.38l72.28-70C86.76,281.66,88.48,195.6,142,142l.88-.83L71.22,70.62Z"/><rect class="cls-2" x="312.97" y="540.06" width="25.52" height="25.52"/><rect class="cls-2" x="163.57" y="501.02" width="25.03" height="25.03"/><polygon class="cls-2" points="237.75 376.4 237.75 387.62 264.75 387.62 264.75 376.4 264.75 360.62 237.75 360.62 237.75 376.4"/></svg>
