<?xml version="1.0" encoding="UTF-8"?>
<svg width="48px" height="48px" viewBox="0 0 48 48" version="1.1" xmlns="http://www.w3.org/2000/svg" xmlns:xlink="http://www.w3.org/1999/xlink">
    <title>edit_pen</title>
    <g id="Page-1" stroke="none" stroke-width="1" fill="none" fill-rule="evenodd">
        <g id="Artboard" transform="translate(-1617.000000, -738.000000)">
            <g id="edit_pen" transform="translate(1617.000000, 738.000000)">
                <path d="M42.914733,10.3264203 L42.2410998,11 L37,5.75931665 L37.6736332,5.08573699 C38.3684043,4.39046484 39.3112683,4 40.2941831,4 C41.2770979,4 42.2194056,4.39046484 42.914733,5.08573699 C43.6095041,5.78045292 44,6.72324195 44,7.70607867 C44,8.68891538 43.6095041,9.63170441 42.914733,10.3264203 L42.914733,10.3264203 Z M40,13.3409422 L26.1931505,27.1669904 L19,29 L20.7849375,21.8271815 L34.5929232,8 L40,13.3409422 Z M35.2571462,2.99247356 L35.2553969,2.99421675 L17.9955715,20.3099683 L17.9955715,20.3099683 L17.9920729,20.3134547 C17.8118943,20.4993956 17.6836118,20.7294976 17.6206368,20.9805179 L17.6200537,20.9805179 L15.0561533,31.1433532 C14.9844317,31.3903061 14.9815162,31.6517855 15.0468237,31.9004816 C15.1127142,32.1503397 15.2456615,32.3775363 15.431088,32.5576666 C15.5751143,32.7035141 15.7477125,32.817984 15.9383869,32.8941035 C16.1284783,32.9696421 16.332564,33.0056681 16.5372329,32.9992764 L16.7652259,32.9992764 L16.8048768,32.9992764 L16.8433616,32.9893983 L27.0476502,30.4327101 L27.0534813,30.431548 L27.0587292,30.4298048 C27.3228745,30.3531042 27.5578647,30.1997029 27.7327953,29.988195 L44.9797925,12.685808 C45.6322839,12.0530277 46.1483293,11.2935751 46.4952751,10.4545165 C46.8428041,9.61545798 47.0142361,8.71480648 46.9990754,7.80718219 C46.9990754,6.91176027 46.8206462,6.0256354 46.4742835,5.19936028 C46.1273376,4.37250409 45.6194556,3.62234855 44.9797925,2.99247356 C43.6858887,1.71587268 41.9389145,1 40.1184694,1 C38.2980243,1 36.55105,1.71587268 35.2571462,2.99247356 L35.2571462,2.99247356 Z" id="Fill-5" fill="#009FDC"></path>
                <path d="M42.914733,10.3264203 L42.2410998,11 L37,5.75931665 L37.6736332,5.08573699 C38.3684043,4.39046484 39.3112683,4 40.2941831,4 C41.2770979,4 42.2194056,4.39046484 42.914733,5.08573699 C43.6095041,5.78045292 44,6.72324195 44,7.70607867 C44,8.68891538 43.6095041,9.63170441 42.914733,10.3264203 Z M40,13.3409422 L26.1931505,27.1669904 L19,29 L20.7849375,21.8271815 L34.5929232,8 L40,13.3409422 Z M35.2571462,2.99247356 L35.2553969,2.99421675 L17.9955715,20.3099683 L17.9955715,20.3099683 L17.9920729,20.3134547 C17.8118943,20.4993956 17.6836118,20.7294976 17.6206368,20.9805179 L17.6200537,20.9805179 L15.0561533,31.1433532 C14.9844317,31.3903061 14.9815162,31.6517855 15.0468237,31.9004816 C15.1127142,32.1503397 15.2456615,32.3775363 15.431088,32.5576666 C15.5751143,32.7035141 15.7477125,32.817984 15.9383869,32.8941035 C16.1284783,32.9696421 16.332564,33.0056681 16.5372329,32.9992764 L16.7652259,32.9992764 L16.8048768,32.9992764 L16.8433616,32.9893983 L27.0476502,30.4327101 L27.0534813,30.431548 L27.0587292,30.4298048 C27.3228745,30.3531042 27.5578647,30.1997029 27.7327953,29.988195 L44.9797925,12.685808 C45.6322839,12.0530277 46.1483293,11.2935751 46.4952751,10.4545165 C46.8428041,9.61545798 47.0142361,8.71480648 46.9990754,7.80718219 C46.9990754,6.91176027 46.8206462,6.0256354 46.4742835,5.19936028 C46.1273376,4.37250409 45.6194556,3.62234855 44.9797925,2.99247356 C43.6858887,1.71587268 41.9389145,1 40.1184694,1 C38.2980243,1 36.55105,1.71587268 35.2571462,2.99247356 Z" id="Stroke-7" stroke="#009FDC" stroke-width="1.1"></path>
            </g>
        </g>
    </g>
</svg>
