<?xml version="1.0" encoding="UTF-8"?>
<svg width="48px" height="48px" viewBox="0 0 48 48" version="1.1" xmlns="http://www.w3.org/2000/svg" xmlns:xlink="http://www.w3.org/1999/xlink">
    <title>edit_pen</title>
    <g id="Page-1" stroke="none" stroke-width="1" fill="none" fill-rule="evenodd">
        <g id="Artboard" transform="translate(-1617.000000, -738.000000)">
            <g id="edit_pen" transform="translate(1617.000000, 738.000000)">
                <rect id="Rectangle" x="0" y="0" width="48" height="48"></rect>
                <path d="M3.48980978,46 L40.8226902,46 C41.2176359,46 41.5968071,45.8430671 41.8760734,45.564205 C42.1553397,45.2853428 42.3125,44.9067203 42.3125,44.5123462 L42.3125,26.9521979 C42.3125,26.5578238 42.1553397,26.1792013 41.8760734,25.9003392 C41.5968071,25.621477 41.2176359,25.4645441 40.8226902,25.4645441 C40.4277446,25.4645441 40.0485734,25.621477 39.7693071,25.9003392 C39.4900408,26.1792013 39.3328804,26.5578238 39.3328804,26.9521979 L39.3328804,43.0246925 L4.97961957,43.0246925 L4.97961957,8.66280753 L18.8552989,8.66280753 C19.2502446,8.66280753 19.6294158,8.50587464 19.9086821,8.22701248 C20.1879484,7.94815033 20.3451087,7.56952786 20.3451087,7.17515376 C20.3451087,6.78077967 20.1879484,6.4021572 19.9086821,6.12329504 C19.6294158,5.84443289 19.2502446,5.6875 18.8552989,5.6875 L3.48980978,5.6875 C3.09486413,5.6875 2.71569293,5.84443289 2.43642663,6.12329504 C2.15716033,6.4021572 2,6.78077967 2,7.17515376 L2,44.5123462 C2,44.9067203 2.15716033,45.2853428 2.43642663,45.564205 C2.71569293,45.8430671 3.09486413,46 3.48980978,46" id="Fill-1" fill="#727382"></path>
                <path d="M3.48980978,46 L40.8226902,46 C41.2176359,46 41.5968071,45.8430671 41.8760734,45.564205 C42.1553397,45.2853428 42.3125,44.9067203 42.3125,44.5123462 L42.3125,26.9521979 C42.3125,26.5578238 42.1553397,26.1792013 41.8760734,25.9003392 C41.5968071,25.621477 41.2176359,25.4645441 40.8226902,25.4645441 C40.4277446,25.4645441 40.0485734,25.621477 39.7693071,25.9003392 C39.4900408,26.1792013 39.3328804,26.5578238 39.3328804,26.9521979 L39.3328804,43.0246925 L4.97961957,43.0246925 L4.97961957,8.66280753 L18.8552989,8.66280753 C19.2502446,8.66280753 19.6294158,8.50587464 19.9086821,8.22701248 C20.1879484,7.94815033 20.3451087,7.56952786 20.3451087,7.17515376 C20.3451087,6.78077967 20.1879484,6.4021572 19.9086821,6.12329504 C19.6294158,5.84443289 19.2502446,5.6875 18.8552989,5.6875 L3.48980978,5.6875 C3.09486413,5.6875 2.71569293,5.84443289 2.43642663,6.12329504 C2.15716033,6.4021572 2,6.78077967 2,7.17515376 L2,44.5123462 C2,44.9067203 2.15716033,45.2853428 2.43642663,45.564205 C2.71569293,45.8430671 3.09486413,46 3.48980978,46 Z" id="Stroke-3" stroke="#727382" stroke-width="1.1"></path>
            </g>
        </g>
    </g>
</svg>
